<svg id="ghostblob" fill-opacity="0.4" xmlns="http://www.w3.org/2000/svg" viewBox="0 0 49.33 41.64"><defs><style>.cls-1{fill:#77a3ad;}.cls-2{fill:#fbfcfc;}.cls-3{fill:#323232;}.cls-4{fill:#2f2f2f;}.cls-5{fill:#3f3f3f;}</style></defs><path id="outline" class="cls-1" d="M49.59,25.55c-1.89,5.5-3.37,10.93-2,16.86.59,2.54-.2,3.74-2.69,3.33-7-1.14-13.93-.36-20.91-.18A37.4,37.4,0,0,1,8.9,42.7c-5.58-2.27-7.06-4.53-6.3-10.51a3.8,3.8,0,0,0-.89-3.54A6.09,6.09,0,0,1,.45,23.44c.29-1.64,1.29-3,3.21-2.54,1.19.28,1.56-.24,2-1.1,1-2,2-4.13,3.15-6.07,3.11-5,7.9-7.56,13.5-8.75,5.8-1.23,11.57-1.26,17,1.47a18.16,18.16,0,0,1,10,12.8c.1.47.18,1,.27,1.42A32.06,32.06,0,0,1,49.59,25.55ZM29,6.42C20,6.57,12.52,9.33,8.67,18.34c-1.09,2.56-2.87,5,.68,7.13A.91.91,0,0,1,9.46,27c-.56.5-1.06.17-1.53-.27-1-.9-1.95-1.79-3-2.65-.67-.57-1.25-1.8-2.35-1s-.61,2-.26,3.06c.64,1.9,2.15,2.91,3.88,3.69.55.25,1.11.57,1,1.29s-.69.89-1.35.75c-.44-.08-.81-.22-1.09.36-.86,1.82.09,5.91,1.89,6.93a36.19,36.19,0,0,0,20,4.27c4.62-.24,9.23-1,13.86-.24,1.24.19,2.49.29,3.73.44.95.11,1.41-.24,1.15-1.25-1.16-4.47-.15-8.73,1.12-13s1.75-8.83-.39-13.13C42.61,9.18,36.67,6.28,29,6.42Z" transform="translate(-0.33 -4.18)"/><path id="body" class="cls-2" d="M29,6.38c7.69-.14,13.63,2.76,17.14,9.83,2.14,4.3,1.69,8.75.39,13.13s-2.28,8.55-1.12,13c.26,1-.2,1.36-1.15,1.25-1.24-.15-2.49-.25-3.73-.44-4.63-.74-9.24,0-13.86.24a36.19,36.19,0,0,1-20-4.27c-1.8-1-2.75-5.11-1.89-6.93.28-.58.65-.45,1.09-.36.66.14,1.22,0,1.35-.75s-.42-1-1-1.29C4.51,29,3,28,2.36,26.12c-.35-1.06-.8-2.26.26-3.06S4.3,23.47,5,24c1,.86,2,1.75,3,2.65.47.44,1,.77,1.53.27a.91.91,0,0,0-.11-1.53c-3.55-2.09-1.77-4.58-.68-7.13C12.52,9.29,20,6.53,29,6.38Zm3.11,24.49a8.93,8.93,0,0,0,5,8.27c.74.42,1.78,1,2.35,0s-.66-1.43-1.36-1.83c-2.07-1.2-3.65-2.71-4-5.23a2,2,0,0,1,.68-2.17c.77-.49,1.37.09,1.93.61,1.19,1.09,2.4,2.16,3.6,3.25.51.48,1,1.4,1.76.58s.28-1.54-.35-2.15C40.49,31,39.2,29.93,38,28.76s-2.38-1.61-3.8-.94S31.88,29.66,32.09,30.87Zm-20.22-13A3.14,3.14,0,0,0,14.68,21c1.64,0,3.15-1.73,3.14-3.62A3,3,0,0,0,15,14.09C13.43,14.17,11.85,16.1,11.87,17.84Zm24.74,2c0-1.94-1.14-3.32-2.78-3.29a3.43,3.43,0,0,0-3.08,3.66c0,1.84,1.07,3.1,2.68,3.14A3.27,3.27,0,0,0,36.61,19.83ZM20.44,25.37c-.38-.85-.63-1.46-.91-2.06s-.56-.95-1.18-.65-.44.85-.22,1.34c.31.67.69,1.31.93,2,.54,1.55,1.35,1.9,2.47.56s1.73-.95,2.47.25,1.46,1.07,2.32.16c.4-.43.9-.76,1.32-1.17s1.48-.91.73-1.72-1.38.1-1.78.61c-1.13,1.4-1.86.89-2.58-.36s-1.39-1.16-2.23-.16A14.15,14.15,0,0,1,20.44,25.37Z" transform="translate(-0.33 -4.18)"/><path id="hand" class="cls-1" d="M32.09,30.92c-.21-1.22.65-2.39,2.09-3.06s2.7-.12,3.8.94,2.51,2.28,3.72,3.45c.63.61,1,1.44.35,2.15s-1.25-.1-1.76-.58c-1.2-1.09-2.41-2.16-3.6-3.25-.56-.52-1.16-1.09-1.93-.6a2,2,0,0,0-.68,2.16c.34,2.52,1.92,4,4,5.23.7.4,2,.67,1.36,1.83s-1.61.41-2.35,0A8.92,8.92,0,0,1,32.09,30.92Z" transform="translate(-0.33 -4.18)"/><path id="eye" class="cls-3" d="M11.87,17.88c0-1.74,1.56-3.67,3.08-3.75a3,3,0,0,1,2.87,3.24c0,1.89-1.5,3.63-3.14,3.62A3.14,3.14,0,0,1,11.87,17.88Z" transform="translate(-0.33 -4.18)"/><path id="eye-2" data-name="eye" class="cls-4" d="M36.61,19.87a3.27,3.27,0,0,1-3.18,3.51c-1.61,0-2.69-1.3-2.68-3.14a3.43,3.43,0,0,1,3.08-3.66C35.47,16.55,36.64,17.93,36.61,19.87Z" transform="translate(-0.33 -4.18)"/><path id="mouth" class="cls-5" d="M20.44,25.41a14.15,14.15,0,0,0,1.34-1.2c.84-1,1.59-.95,2.23.16s1.45,1.76,2.58.36c.4-.51,1-1.41,1.78-.61s-.24,1.25-.73,1.72-.92.74-1.32,1.17c-.86.91-1.66.92-2.32-.16s-1.46-1.46-2.47-.25-1.93,1-2.47-.56c-.24-.69-.62-1.33-.93-2-.22-.49-.39-1,.22-1.34s.95.16,1.18.65S20.06,24.56,20.44,25.41Z" transform="translate(-0.33 -4.18)"/></svg>